<svg xmlns="http://www.w3.org/2000/svg" width="442" height="158" viewBox="0 0 442 158">
<g>
<path d="M 163.27 123.53 C155.85,125.10 153.72,125.16 147.00,123.97 C123.88,119.86 107.96,101.13 108.02,78.09 C108.07,59.38 117.76,44.13 135.00,35.69 C141.29,32.60 141.91,32.50 154.50,32.50 C167.36,32.50 167.57,32.54 174.46,36.00 C194.31,45.98 204.78,67.98 199.46,88.54 C197.14,97.48 194.32,102.59 187.88,109.47 C181.01,116.81 172.78,121.52 163.27,123.53 ZM 147.38 112.11 C152.53,113.44 162.76,112.26 168.35,109.68 C174.95,106.64 181.19,100.34 184.72,93.16 C187.20,88.12 187.50,86.41 187.50,77.50 C187.50,68.02 187.32,67.17 184.09,61.21 C180.09,53.83 175.68,49.68 168.05,46.10 C163.41,43.93 161.10,43.50 153.97,43.52 C146.55,43.54 144.68,43.92 139.67,46.46 C132.64,50.02 126.69,56.27 123.18,63.82 C119.49,71.75 119.50,83.91 123.21,92.00 C127.49,101.35 137.31,109.51 147.38,112.11 ZM 91.00 78.39 C91.00,105.57 90.62,125.00 90.09,125.00 C89.60,125.00 74.59,110.15 56.74,92.00 C38.89,73.85 23.97,59.00 23.57,59.00 C23.17,59.00 23.00,73.51 23.17,91.25 L 23.50 123.50 L 11.50 123.50 L 11.24 76.75 C11.10,50.65 11.37,30.00 11.85,30.00 C12.33,30.00 18.71,36.19 26.02,43.75 C49.11,67.61 78.10,97.00 78.56,97.00 C78.80,97.00 79.00,82.60 79.00,65.00 L 79.00 33.00 L 83.42 33.00 C85.85,33.00 88.55,32.73 89.42,32.39 C90.85,31.84 91.00,36.30 91.00,78.39 ZM 245.16 108.89 C241.33,117.67 239.38,119.44 235.25,117.90 C234.92,117.78 234.64,117.69 234.38,117.57 C232.64,116.75 231.68,114.30 220.64,88.00 C215.44,75.62 208.22,58.47 204.60,49.88 C200.97,41.29 198.00,33.76 198.00,33.13 C198.00,32.40 200.40,32.00 204.81,32.00 L 211.62 32.00 L 219.52 52.00 C223.87,63.00 227.75,72.00 228.14,72.00 C228.53,72.00 226.18,64.32 222.92,54.94 C219.67,45.56 217.00,37.46 217.00,36.94 C217.00,36.42 217.56,36.00 218.25,36.01 C218.97,36.01 221.83,42.87 225.00,52.17 C228.02,61.06 230.63,67.43 230.80,66.33 C230.96,65.23 229.95,57.56 228.55,49.28 C225.61,31.95 225.55,31.00 227.29,31.00 C228.20,31.00 229.61,37.33 232.04,52.25 L 235.50 73.50 L 235.77 51.25 C236.00,31.96 236.24,29.00 237.58,29.00 C238.95,29.00 239.09,31.88 238.82,53.00 C238.64,66.20 238.76,77.00 239.08,77.00 C239.40,77.00 240.88,69.24 242.38,59.75 C246.49,33.63 247.07,31.00 248.71,31.00 C249.76,31.00 250.00,31.76 249.60,33.75 C247.80,42.57 243.97,67.42 244.28,68.33 C244.47,68.91 247.25,61.88 250.45,52.70 C254.15,42.06 256.76,36.00 257.63,36.00 C258.38,36.00 259.00,36.17 259.00,36.38 C259.00,36.59 256.51,43.86 253.47,52.54 C250.43,61.22 248.09,68.77 248.28,69.33 C248.46,69.88 251.92,61.71 255.96,51.17 L 263.31 32.00 L 270.16 32.00 C273.92,32.00 277.00,32.41 277.00,32.91 C277.00,33.40 274.35,40.04 271.11,47.66 C267.88,55.27 261.54,70.28 257.03,81.00 C252.51,91.72 247.18,104.28 245.16,108.89 ZM 329.53 123.91 C322.22,125.26 320.80,125.22 314.23,123.45 C304.01,120.70 296.67,115.08 292.17,106.56 L 289.50 101.50 L 289.20 66.75 C288.95,37.39 289.12,32.00 290.31,32.00 C291.09,32.00 293.81,32.29 296.36,32.64 L 301.00 33.27 L 301.02 64.39 C301.05,99.70 301.21,100.60 308.91,107.19 C318.97,115.80 334.02,113.94 341.49,103.17 L 344.50 98.83 L 345.10 31.74 L 349.69 32.37 C352.21,32.72 354.91,33.00 355.69,33.00 C356.88,33.00 357.05,38.23 356.80,66.75 C356.52,98.77 356.39,100.74 354.36,105.12 C349.71,115.19 340.97,121.79 329.53,123.91 ZM 414.11 122.43 C404.88,125.43 394.82,125.13 385.03,121.56 C379.52,119.55 371.77,115.08 372.22,114.17 C375.22,108.12 376.52,106.00 377.21,106.00 C377.68,106.00 380.63,107.30 383.78,108.88 C392.33,113.18 399.57,114.54 405.86,113.03 C412.03,111.55 415.77,108.80 417.62,104.36 C419.44,100.01 419.36,96.60 417.35,92.70 C414.84,87.85 413.94,87.30 393.45,78.03 C379.13,71.55 373.52,61.47 377.09,48.62 C378.69,42.84 386.45,35.54 393.06,33.58 C399.07,31.79 408.34,31.57 415.00,33.05 C421.13,34.41 430.00,38.02 430.00,39.16 C430.00,39.66 429.07,41.90 427.94,44.12 C426.37,47.20 425.47,48.00 424.19,47.47 C403.95,39.10 389.00,42.46 389.00,55.37 C389.00,61.80 393.87,65.51 412.02,72.92 C426.16,78.70 431.00,85.09 431.00,98.00 C431.00,110.08 424.88,118.93 414.11,122.43 Z" fill="rgb(51,89,72)"/>
<path d="M 238.93 38.89 C238.98,42.07 239.00,46.24 239.00,51.67 C239.00,64.13 239.28,74.06 239.61,73.72 C239.95,73.38 241.29,66.45 242.60,58.30 C242.76,57.30 242.91,56.33 243.07,55.39 C242.85,56.77 242.62,58.22 242.38,59.75 C240.88,69.24 239.40,77.00 239.08,77.00 C238.76,77.00 238.64,66.20 238.82,53.00 C238.90,46.90 238.94,42.31 238.93,38.89 ZM 236.79 29.71 C236.99,29.19 237.23,29.00 237.52,29.00 C237.53,29.00 237.54,29.00 237.55,29.00 C237.24,29.01 236.99,29.19 236.79,29.71 Z" fill="rgb(107,133,121)"/>
<path d="M 0.00 79.00 L 0.00 0.00 L 221.00 0.00 L 442.00 0.00 L 442.00 79.00 L 442.00 158.00 L 221.00 158.00 L 0.00 158.00 L 0.00 79.00 ZM 91.00 78.39 C91.00,36.30 90.85,31.84 89.42,32.39 C88.55,32.73 85.85,33.00 83.42,33.00 L 79.00 33.00 L 79.00 65.00 C79.00,82.60 78.80,97.00 78.56,97.00 C78.10,97.00 49.11,67.61 26.02,43.75 C18.71,36.19 12.33,30.00 11.85,30.00 C11.37,30.00 11.10,50.65 11.24,76.75 L 11.50 123.50 L 17.50 123.50 L 23.50 123.50 L 23.17 91.25 C23.00,73.51 23.17,59.00 23.57,59.00 C23.97,59.00 38.89,73.85 56.74,92.00 C74.59,110.15 89.60,125.00 90.09,125.00 C90.62,125.00 91.00,105.57 91.00,78.39 ZM 163.27 123.53 C172.78,121.52 181.01,116.81 187.88,109.47 C194.32,102.59 197.14,97.48 199.46,88.54 C204.78,67.98 194.31,45.98 174.46,36.00 C167.57,32.54 167.36,32.50 154.50,32.50 C141.91,32.50 141.29,32.60 135.00,35.69 C117.76,44.13 108.07,59.38 108.02,78.09 C107.96,101.13 123.88,119.86 147.00,123.97 C153.72,125.16 155.85,125.10 163.27,123.53 ZM 329.53 123.91 C340.97,121.79 349.71,115.19 354.36,105.12 C356.39,100.74 356.52,98.77 356.80,66.75 C357.05,38.23 356.88,33.00 355.69,33.00 C354.91,33.00 352.21,32.72 349.69,32.37 L 345.10 31.74 L 344.80 65.29 L 344.50 98.83 L 341.49 103.17 C334.02,113.94 318.97,115.80 308.91,107.19 C301.21,100.60 301.05,99.70 301.02,64.39 L 301.00 33.27 L 296.36 32.64 C293.81,32.29 291.09,32.00 290.31,32.00 C289.12,32.00 288.95,37.39 289.20,66.75 L 289.50 101.50 L 292.17 106.56 C296.67,115.08 304.01,120.70 314.23,123.45 C320.80,125.22 322.22,125.26 329.53,123.91 ZM 414.11 122.43 C424.88,118.93 431.00,110.08 431.00,98.00 C431.00,85.09 426.16,78.70 412.02,72.92 C393.87,65.51 389.00,61.80 389.00,55.37 C389.00,42.46 403.95,39.10 424.19,47.47 C425.47,48.00 426.37,47.20 427.94,44.12 C429.07,41.90 430.00,39.66 430.00,39.16 C430.00,38.02 421.13,34.41 415.00,33.05 C408.34,31.57 399.07,31.79 393.06,33.58 C386.45,35.54 378.69,42.84 377.09,48.62 C373.52,61.47 379.13,71.55 393.45,78.03 C413.94,87.30 414.84,87.85 417.35,92.70 C419.36,96.60 419.44,100.01 417.62,104.36 C415.77,108.80 412.03,111.55 405.86,113.03 C399.57,114.54 392.33,113.18 383.78,108.88 C380.63,107.30 377.68,106.00 377.21,106.00 C376.52,106.00 375.22,108.12 372.22,114.17 C371.77,115.08 379.52,119.55 385.03,121.56 C394.82,125.13 404.88,125.43 414.11,122.43 ZM 245.16 108.89 C247.18,104.28 252.51,91.72 257.03,81.00 C261.54,70.28 267.88,55.27 271.11,47.66 C274.35,40.04 277.00,33.40 277.00,32.91 C277.00,32.41 273.92,32.00 270.16,32.00 L 263.31 32.00 L 255.96 51.17 C251.92,61.71 248.46,69.88 248.28,69.33 C248.09,68.77 250.43,61.22 253.47,52.54 C256.51,43.86 259.00,36.59 259.00,36.38 C259.00,36.17 258.38,36.00 257.63,36.00 C256.76,36.00 254.15,42.06 250.45,52.70 C247.25,61.88 244.47,68.91 244.28,68.33 C243.97,67.42 247.80,42.57 249.60,33.75 C250.01,31.75 249.76,31.00 248.69,31.00 C247.10,31.00 246.65,33.02 242.60,58.30 C241.29,66.45 239.95,73.38 239.61,73.72 C239.28,74.06 239.00,64.13 239.00,51.67 C239.00,32.32 238.78,29.00 237.52,29.00 C236.26,29.00 236.00,32.39 235.77,51.25 L 235.50 73.50 L 232.04 52.25 C229.61,37.33 228.20,31.00 227.29,31.00 C225.55,31.00 225.61,31.95 228.55,49.28 C229.95,57.56 230.96,65.23 230.80,66.33 C230.63,67.43 228.02,61.06 225.00,52.17 C221.83,42.87 218.97,36.01 218.25,36.01 C217.56,36.00 217.00,36.42 217.00,36.94 C217.00,37.46 219.67,45.56 222.92,54.94 C226.18,64.32 228.53,72.00 228.14,72.00 C227.75,72.00 223.87,63.00 219.52,52.00 L 211.62 32.00 L 204.81 32.00 C200.40,32.00 198.00,32.40 198.00,33.13 C198.00,33.76 200.97,41.29 204.60,49.88 C208.22,58.47 215.44,75.62 220.64,88.00 C233.33,118.24 232.70,116.95 235.25,117.90 C239.38,119.44 241.33,117.67 245.16,108.89 ZM 147.38 112.11 C137.31,109.51 127.49,101.35 123.21,92.00 C119.50,83.91 119.49,71.75 123.18,63.82 C126.69,56.27 132.64,50.02 139.67,46.46 C144.68,43.92 146.55,43.54 153.97,43.52 C161.10,43.50 163.41,43.93 168.05,46.10 C175.68,49.68 180.09,53.83 184.09,61.21 C187.32,67.17 187.50,68.02 187.50,77.50 C187.50,86.41 187.20,88.12 184.72,93.16 C181.19,100.34 174.95,106.64 168.35,109.68 C162.76,112.26 152.53,113.44 147.38,112.11 Z" fill="rgb(253,254,254)"/>
</g>
</svg>